<?xml version="1.0" encoding="UTF-8" standalone="no"?>
<svg
   xmlns:dc="http://purl.org/dc/elements/1.1/"
   xmlns:cc="http://creativecommons.org/ns#"
   xmlns:rdf="http://www.w3.org/1999/02/22-rdf-syntax-ns#"
   xmlns:svg="http://www.w3.org/2000/svg"
   xmlns="http://www.w3.org/2000/svg"
   viewBox="0 0 232.28 440.88"
   height="440.88"
   width="232.28"
   xml:space="preserve"
   id="svg2"
   version="1.1"><metadata
     id="metadata8"><rdf:RDF><cc:Work
         rdf:about=""><dc:format>image/svg+xml</dc:format><dc:type
           rdf:resource="http://purl.org/dc/dcmitype/StillImage" /></cc:Work></rdf:RDF></metadata><defs
     id="defs6" /><g
     transform="matrix(1.3333333,0,0,-1.3333333,0,440.88)"
     id="g10"><g
       transform="scale(0.1)"
       id="g12"><path
         id="path14"
         style="fill:#964103;fill-opacity:1;fill-rule:evenodd;stroke:none"
         d="m 414.379,2203.81 96.406,55.81 289.219,-504.01 v 698.52 h 223.256 v -575.06 l 326.43,564.91 94.71,-54.12 -421.14,-732.35 v -387.32 l 33.82,-67.65 h -33.82 -223.256 -33.828 l 33.828,67.65 v 263.85 l -385.625,669.77" /><path
         id="path16"
         style="fill:#873b03;fill-opacity:1;fill-rule:evenodd;stroke:none"
         d="m 911.629,2454.13 h 111.631 v -575.06 l 326.43,564.91 94.71,-54.12 -421.14,-732.35 v -387.32 l 33.82,-67.65 h -33.82 -111.631 v 1251.59" /><path
         id="path18"
         style="fill:#59b828;fill-opacity:1;fill-rule:evenodd;stroke:none"
         d="m 1488.38,2734.89 c 1.69,10.15 1.69,21.99 1.69,32.14 0,175.89 -130.23,321.35 -301.06,343.33 -40.59,113.32 -148.84,196.2 -277.381,196.2 -128.539,0 -236.785,-82.88 -277.375,-196.2 -170.828,-21.98 -301.063,-167.44 -301.063,-343.33 0,-10.15 0,-21.99 1.696,-32.14 -150.532,-69.35 -253.7034,-219.87 -253.7034,-394.08 0,-240.17 194.5044,-434.68 434.6754,-434.68 93.024,0 179.282,28.75 250.317,79.5 43.972,-23.68 93.023,-37.22 145.453,-37.22 52.434,0 101.481,13.54 145.451,37.22 71.04,-50.75 157.3,-79.5 250.33,-79.5 240.16,0 434.67,194.51 434.67,434.68 0,174.21 -103.17,324.73 -253.7,394.08 v 0" /><path
         id="path20"
         style="fill:#36ad47;fill-opacity:1;fill-rule:evenodd;stroke:none"
         d="m 1126.43,2805.93 c 99.79,50.73 167.45,155.6 162.37,275.68 -30.45,13.53 -64.27,23.68 -99.79,28.75 38.9,-106.54 13.53,-223.25 -62.58,-304.43 z m 177.59,-345.04 c 135.31,-5.07 255.39,67.66 316.28,180.98 -37.21,38.9 -81.18,69.34 -131.92,93.02 -10.15,-120.09 -82.88,-221.56 -184.36,-274 v 0" /><path
         id="path22"
         style="fill:#80c340;fill-opacity:1;fill-rule:evenodd;stroke:none"
         d="m 216.492,2340.81 c 0,174.21 103.168,324.73 252.008,394.08 0,10.15 -1.687,21.99 -1.687,32.14 0,175.89 131.921,321.35 301.05,343.33 33.828,93.03 113.325,164.07 211.422,187.74 -21.984,5.08 -43.972,8.46 -67.656,8.46 -128.539,0 -236.785,-82.88 -277.375,-196.2 -170.828,-21.98 -301.063,-167.44 -301.063,-343.33 0,-10.15 0,-21.99 1.696,-32.14 -150.532,-69.35 -253.7034,-219.87 -253.7034,-394.08 0,-240.17 194.5044,-434.68 434.6754,-434.68 21.989,0 43.973,1.69 65.961,5.08 -206.343,32.13 -365.328,211.41 -365.328,429.6 v 0" /><path
         id="path24"
         style="fill:#964103;fill-opacity:1;fill-rule:evenodd;stroke:none"
         d="m 1041.86,461.73 c 43.98,11.84 81.19,6.77 86.26,-13.531 6.77,-18.597 -23.68,-43.969 -65.96,-55.82 -42.28,-10.141 -81.183,-5.07 -86.258,13.543 -5.074,20.289 23.676,43.969 65.958,55.808 z M 206.344,370.398 c 42.285,11.84 81.183,5.071 86.258,-13.527 5.074,-18.609 -25.372,-43.98 -67.653,-55.82 -42.285,-11.832 -81.183,-5.071 -86.258,13.531 -5.074,18.609 25.372,43.977 67.653,55.816 z m 89.64,52.434 c 27.063,0 54.121,-1.691 79.493,-6.773 v 874.421 c 0,35.53 30.445,57.51 64.273,64.28 l 943.76,174.21 c 33.83,6.76 64.28,-28.76 64.28,-65.97 V 314.582 c 0,-116.703 -131.93,-211.41 -295.99,-211.41 -162.366,0 -294.292,94.707 -294.292,211.41 0,147.148 196.202,238.477 375.482,202.969 V 1079.07 L 590.277,977.59 V 211.41 C 590.277,94.7109 458.355,0 295.984,0 131.922,0 0,94.7109 0,211.41 0,328.121 131.922,422.832 295.984,422.832 v 0" /></g></g></svg>